<svg width="200" height="200" viewBox="0 0 200 200" fill="none" xmlns="http://www.w3.org/2000/svg">
<rect width="200" height="200" rx="35" fill="#E6E6E6"/>
<path d="M47.0845 102.367C44.9119 102.367 43.0452 101.908 41.4845 100.99C39.9239 100.072 38.7304 98.6798 37.9042 96.8131C37.078 94.9158 36.6649 92.529 36.6649 89.6525C36.6649 86.7454 37.0933 84.3585 37.9501 82.4918C38.8375 80.6251 40.0616 79.2328 41.6222 78.3148C43.1829 77.3967 45.0037 76.9377 47.0845 76.9377C49.4102 76.9377 51.4911 77.4579 53.3272 78.4984C55.1938 79.5388 56.6627 81.0077 57.7337 82.9049C58.8354 84.8022 59.3862 87.0514 59.3862 89.6525C59.3862 92.223 58.8354 94.4568 57.7337 96.3541C56.6627 98.2514 55.1938 99.7355 53.3272 100.807C51.4911 101.847 49.4102 102.367 47.0845 102.367ZM32.4878 102V67.941H39.6485V82.3082L39.1894 89.6066L39.3272 96.9508V102H32.4878ZM45.8452 96.4918C47.0386 96.4918 48.0944 96.2164 49.0124 95.6656C49.961 95.1148 50.7108 94.3344 51.2616 93.3246C51.843 92.2842 52.1337 91.0601 52.1337 89.6525C52.1337 88.2142 51.843 86.9902 51.2616 85.9803C50.7108 84.9705 49.961 84.1902 49.0124 83.6393C48.0944 83.0885 47.0386 82.8131 45.8452 82.8131C44.6517 82.8131 43.5807 83.0885 42.6321 83.6393C41.6834 84.1902 40.9337 84.9705 40.3829 85.9803C39.8321 86.9902 39.5567 88.2142 39.5567 89.6525C39.5567 91.0601 39.8321 92.2842 40.3829 93.3246C40.9337 94.3344 41.6834 95.1148 42.6321 95.6656C43.5807 96.2164 44.6517 96.4918 45.8452 96.4918ZM64.1797 102V67.941H71.3403V102H64.1797ZM89.7368 102.367C87.1051 102.367 84.7642 101.816 82.7139 100.715C80.6942 99.6131 79.0877 98.1137 77.8942 96.2164C76.7314 94.2885 76.15 92.1005 76.15 89.6525C76.15 87.1738 76.7314 84.9858 77.8942 83.0885C79.0877 81.1607 80.6942 79.6612 82.7139 78.5902C84.7642 77.4885 87.1051 76.9377 89.7368 76.9377C92.3379 76.9377 94.6636 77.4885 96.7139 78.5902C98.7642 79.6612 100.371 81.1454 101.534 83.0426C102.696 84.9399 103.278 87.1432 103.278 89.6525C103.278 92.1005 102.696 94.2885 101.534 96.2164C100.371 98.1137 98.7642 99.6131 96.7139 100.715C94.6636 101.816 92.3379 102.367 89.7368 102.367ZM89.7368 96.4918C90.9303 96.4918 92.0013 96.2164 92.95 95.6656C93.8986 95.1148 94.6483 94.3344 95.1991 93.3246C95.75 92.2842 96.0254 91.0601 96.0254 89.6525C96.0254 88.2142 95.75 86.9902 95.1991 85.9803C94.6483 84.9705 93.8986 84.1902 92.95 83.6393C92.0013 83.0885 90.9303 82.8131 89.7368 82.8131C88.5434 82.8131 87.4724 83.0885 86.5237 83.6393C85.5751 84.1902 84.8101 84.9705 84.2286 85.9803C83.6778 86.9902 83.4024 88.2142 83.4024 89.6525C83.4024 91.0601 83.6778 92.2842 84.2286 93.3246C84.8101 94.3344 85.5751 95.1148 86.5237 95.6656C87.4724 96.2164 88.5434 96.4918 89.7368 96.4918ZM119.677 111.272C117.352 111.272 115.102 110.981 112.93 110.4C110.788 109.849 108.997 109.008 107.559 107.875L110.405 102.734C111.446 103.591 112.761 104.264 114.353 104.754C115.975 105.274 117.566 105.534 119.126 105.534C121.666 105.534 123.502 104.968 124.635 103.836C125.797 102.704 126.379 101.021 126.379 98.7869V95.0689L126.838 88.8721L126.746 82.6295V77.3049H133.54V97.8689C133.54 102.459 132.346 105.84 129.959 108.013C127.572 110.186 124.145 111.272 119.677 111.272ZM118.576 100.807C116.281 100.807 114.2 100.317 112.333 99.3377C110.497 98.3279 109.013 96.9355 107.881 95.1607C106.779 93.3552 106.228 91.259 106.228 88.8721C106.228 86.4546 106.779 84.3585 107.881 82.5836C109.013 80.7781 110.497 79.3858 112.333 78.4066C114.2 77.4273 116.281 76.9377 118.576 76.9377C120.656 76.9377 122.493 77.3661 124.084 78.223C125.675 79.0492 126.914 80.3497 127.802 82.1246C128.689 83.8689 129.133 86.118 129.133 88.8721C129.133 91.5956 128.689 93.8448 127.802 95.6197C126.914 97.3639 125.675 98.6645 124.084 99.5213C122.493 100.378 120.656 100.807 118.576 100.807ZM119.999 94.9311C121.253 94.9311 122.37 94.6863 123.349 94.1967C124.329 93.6765 125.094 92.9574 125.644 92.0393C126.195 91.1213 126.471 90.0656 126.471 88.8721C126.471 87.6481 126.195 86.5923 125.644 85.7049C125.094 84.7869 124.329 84.0831 123.349 83.5934C122.37 83.0732 121.253 82.8131 119.999 82.8131C118.744 82.8131 117.627 83.0732 116.648 83.5934C115.669 84.0831 114.888 84.7869 114.307 85.7049C113.756 86.5923 113.481 87.6481 113.481 88.8721C113.481 90.0656 113.756 91.1213 114.307 92.0393C114.888 92.9574 115.669 93.6765 116.648 94.1967C117.627 94.6863 118.744 94.9311 119.999 94.9311ZM140.204 102V77.3049H147.365V102H140.204ZM143.785 73.8623C142.469 73.8623 141.398 73.4798 140.571 72.7148C139.745 71.9497 139.332 71.0011 139.332 69.8689C139.332 68.7366 139.745 67.788 140.571 67.023C141.398 66.2579 142.469 65.8754 143.785 65.8754C145.1 65.8754 146.171 66.2426 146.998 66.977C147.824 67.6809 148.237 68.5989 148.237 69.7311C148.237 70.9246 147.824 71.9191 146.998 72.7148C146.202 73.4798 145.131 73.8623 143.785 73.8623ZM164.109 102.367C161.202 102.367 158.937 101.633 157.316 100.164C155.694 98.6645 154.883 96.4459 154.883 93.5082V71.8426H162.043V93.4164C162.043 94.4568 162.319 95.2678 162.87 95.8492C163.42 96.4 164.17 96.6754 165.119 96.6754C166.251 96.6754 167.215 96.3694 168.011 95.7574L169.938 100.807C169.204 101.327 168.317 101.725 167.276 102C166.266 102.245 165.211 102.367 164.109 102.367ZM151.073 83.3639V77.8557H168.194V83.3639H151.073Z" fill="#0B1831"/>
<path d="M38.7942 129.492L36.5121 121.146H37.539L39.2832 127.943H39.3647L41.1414 121.146H42.2824L44.0592 127.943H44.1407L45.8848 121.146H46.9117L44.6297 129.492H43.5864L41.7445 122.841H41.6793L39.8374 129.492H38.7942ZM47.6483 129.492V123.232H48.5774V124.178H48.6426C48.7567 123.868 48.9632 123.617 49.262 123.424C49.5608 123.231 49.8977 123.135 50.2726 123.135C50.3433 123.135 50.4316 123.136 50.5375 123.139C50.6435 123.141 50.7236 123.145 50.7779 123.151V124.129C50.7453 124.121 50.6706 124.109 50.5538 124.092C50.4397 124.073 50.3188 124.064 50.1911 124.064C49.8869 124.064 49.6152 124.128 49.3761 124.255C49.1398 124.38 48.9523 124.554 48.8137 124.777C48.6779 124.997 48.61 125.248 48.61 125.531V129.492H47.6483ZM51.9179 129.492V123.232H52.8797V129.492H51.9179ZM52.4069 122.189C52.2195 122.189 52.0578 122.125 51.922 121.998C51.7889 121.87 51.7223 121.716 51.7223 121.537C51.7223 121.358 51.7889 121.204 51.922 121.077C52.0578 120.949 52.2195 120.885 52.4069 120.885C52.5944 120.885 52.7547 120.949 52.8878 121.077C53.0236 121.204 53.0916 121.358 53.0916 121.537C53.0916 121.716 53.0236 121.87 52.8878 121.998C52.7547 122.125 52.5944 122.189 52.4069 122.189ZM57.3633 123.232V124.047H54.1195V123.232H57.3633ZM55.0649 121.733H56.0266V127.699C56.0266 127.97 56.066 128.174 56.1448 128.31C56.2263 128.443 56.3295 128.533 56.4545 128.579C56.5822 128.622 56.7167 128.644 56.8579 128.644C56.9639 128.644 57.0508 128.639 57.1187 128.628C57.1867 128.614 57.241 128.603 57.2818 128.595L57.4774 129.459C57.4122 129.484 57.3211 129.508 57.2043 129.532C57.0875 129.56 56.9394 129.573 56.7601 129.573C56.4885 129.573 56.2222 129.515 55.9614 129.398C55.7033 129.281 55.4887 129.103 55.3176 128.864C55.1491 128.625 55.0649 128.324 55.0649 127.959V121.733ZM61.367 129.622C60.7639 129.622 60.2437 129.489 59.8063 129.223C59.3716 128.954 59.0361 128.579 58.7997 128.098C58.5661 127.614 58.4493 127.052 58.4493 126.411C58.4493 125.77 58.5661 125.205 58.7997 124.716C59.0361 124.224 59.3648 123.841 59.7859 123.567C60.2097 123.289 60.7041 123.151 61.2692 123.151C61.5952 123.151 61.9171 123.205 62.235 123.314C62.5529 123.423 62.8422 123.599 63.103 123.844C63.3638 124.085 63.5716 124.406 63.7265 124.805C63.8813 125.205 63.9588 125.696 63.9588 126.281V126.688H59.1339V125.857H62.9807C62.9807 125.504 62.9101 125.188 62.7688 124.911C62.6303 124.634 62.432 124.416 62.1739 124.255C61.9185 124.095 61.617 124.015 61.2692 124.015C60.8862 124.015 60.5547 124.11 60.2749 124.3C59.9978 124.488 59.7845 124.732 59.6351 125.034C59.4857 125.335 59.411 125.658 59.411 126.003V126.558C59.411 127.03 59.4925 127.431 59.6555 127.76C59.8212 128.086 60.0508 128.334 60.3442 128.506C60.6376 128.674 60.9785 128.758 61.367 128.758C61.6197 128.758 61.8479 128.723 62.0516 128.652C62.2581 128.579 62.436 128.47 62.5855 128.326C62.7349 128.18 62.8503 127.998 62.9318 127.78L63.861 128.041C63.7632 128.356 63.5988 128.633 63.3679 128.872C63.137 129.109 62.8517 129.293 62.5121 129.426C62.1725 129.557 61.7908 129.622 61.367 129.622ZM66.1226 129.557C65.9216 129.557 65.7491 129.485 65.6051 129.341C65.4611 129.197 65.3891 129.024 65.3891 128.823C65.3891 128.622 65.4611 128.45 65.6051 128.306C65.7491 128.162 65.9216 128.09 66.1226 128.09C66.3237 128.09 66.4962 128.162 66.6402 128.306C66.7841 128.45 66.8561 128.622 66.8561 128.823C66.8561 128.957 66.8222 129.079 66.7543 129.19C66.6891 129.302 66.6008 129.391 66.4894 129.459C66.3807 129.524 66.2585 129.557 66.1226 129.557ZM71.9398 129.492V121.146H76.9766V122.042H72.9504V124.862H76.7158V125.759H72.9504V128.595H77.0418V129.492H71.9398ZM79.385 123.232L80.8846 125.792L82.3842 123.232H83.4926L81.4714 126.362L83.4926 129.492H82.3842L80.8846 127.063L79.385 129.492H78.2765L80.2652 126.362L78.2765 123.232H79.385ZM84.8649 131.839V123.232H85.794V124.227H85.9081C85.9788 124.118 86.0766 123.979 86.2015 123.811C86.3292 123.64 86.5112 123.488 86.7476 123.355C86.9867 123.219 87.31 123.151 87.7175 123.151C88.2445 123.151 88.7091 123.283 89.1111 123.546C89.5132 123.81 89.827 124.183 90.0525 124.667C90.278 125.15 90.3907 125.721 90.3907 126.378C90.3907 127.041 90.278 127.616 90.0525 128.102C89.827 128.586 89.5146 128.961 89.1152 129.227C88.7159 129.49 88.2554 129.622 87.7338 129.622C87.3317 129.622 87.0098 129.556 86.768 129.422C86.5262 129.287 86.3401 129.133 86.2097 128.962C86.0793 128.788 85.9788 128.644 85.9081 128.53H85.8266V131.839H84.8649ZM85.8103 126.362C85.8103 126.835 85.8796 127.252 86.0182 127.613C86.1567 127.972 86.3591 128.253 86.6253 128.457C86.8916 128.658 87.2176 128.758 87.6034 128.758C88.0054 128.758 88.341 128.652 88.6099 128.44C88.8816 128.226 89.0853 127.938 89.2212 127.576C89.3597 127.212 89.429 126.808 89.429 126.362C89.429 125.922 89.3611 125.525 89.2252 125.172C89.0921 124.816 88.8897 124.535 88.6181 124.329C88.3491 124.119 88.0109 124.015 87.6034 124.015C87.2122 124.015 86.8834 124.114 86.6172 124.312C86.351 124.508 86.1499 124.782 86.0141 125.135C85.8782 125.486 85.8103 125.895 85.8103 126.362ZM91.8577 129.492V123.232H92.7869V124.178H92.8521C92.9662 123.868 93.1726 123.617 93.4715 123.424C93.7703 123.231 94.1072 123.135 94.4821 123.135C94.5527 123.135 94.641 123.136 94.747 123.139C94.8529 123.141 94.9331 123.145 94.9874 123.151V124.129C94.9548 124.121 94.8801 124.109 94.7633 124.092C94.6492 124.073 94.5283 124.064 94.4006 124.064C94.0963 124.064 93.8246 124.128 93.5856 124.255C93.3492 124.38 93.1618 124.554 93.0232 124.777C92.8874 124.997 92.8195 125.248 92.8195 125.531V129.492H91.8577ZM98.5612 129.622C97.9581 129.622 97.4379 129.489 97.0005 129.223C96.5658 128.954 96.2303 128.579 95.9939 128.098C95.7603 127.614 95.6435 127.052 95.6435 126.411C95.6435 125.77 95.7603 125.205 95.9939 124.716C96.2303 124.224 96.559 123.841 96.9801 123.567C97.4039 123.289 97.8984 123.151 98.4634 123.151C98.7894 123.151 99.1114 123.205 99.4292 123.314C99.7471 123.423 100.036 123.599 100.297 123.844C100.558 124.085 100.766 124.406 100.921 124.805C101.076 125.205 101.153 125.696 101.153 126.281V126.688H96.3281V125.857H100.175C100.175 125.504 100.104 125.188 99.9631 124.911C99.8245 124.634 99.6262 124.416 99.3681 124.255C99.1127 124.095 98.8112 124.015 98.4634 124.015C98.0804 124.015 97.7489 124.11 97.4691 124.3C97.192 124.488 96.9787 124.732 96.8293 125.034C96.6799 125.335 96.6052 125.658 96.6052 126.003V126.558C96.6052 127.03 96.6867 127.431 96.8497 127.76C97.0154 128.086 97.245 128.334 97.5384 128.506C97.8318 128.674 98.1727 128.758 98.5612 128.758C98.8139 128.758 99.0421 128.723 99.2458 128.652C99.4523 128.579 99.6303 128.47 99.7797 128.326C99.9291 128.18 100.045 127.998 100.126 127.78L101.055 128.041C100.957 128.356 100.793 128.633 100.562 128.872C100.331 129.109 100.046 129.293 99.7063 129.426C99.3667 129.557 98.985 129.622 98.5612 129.622ZM107.05 124.634L106.186 124.879C106.131 124.735 106.051 124.595 105.945 124.459C105.842 124.32 105.701 124.206 105.521 124.117C105.342 124.027 105.113 123.982 104.833 123.982C104.45 123.982 104.131 124.07 103.875 124.247C103.622 124.421 103.496 124.642 103.496 124.911C103.496 125.15 103.583 125.339 103.757 125.478C103.931 125.616 104.202 125.732 104.572 125.824L105.501 126.052C106.061 126.188 106.478 126.396 106.752 126.676C107.027 126.953 107.164 127.31 107.164 127.748C107.164 128.106 107.06 128.427 106.854 128.709C106.65 128.992 106.365 129.215 105.998 129.378C105.631 129.541 105.205 129.622 104.719 129.622C104.08 129.622 103.552 129.484 103.133 129.206C102.715 128.929 102.45 128.525 102.339 127.992L103.252 127.764C103.339 128.101 103.503 128.353 103.745 128.522C103.989 128.69 104.308 128.774 104.702 128.774C105.151 128.774 105.507 128.679 105.77 128.489C106.036 128.296 106.169 128.065 106.169 127.796C106.169 127.579 106.093 127.397 105.941 127.25C105.789 127.101 105.555 126.99 105.24 126.916L104.197 126.672C103.624 126.536 103.203 126.325 102.934 126.04C102.668 125.752 102.534 125.392 102.534 124.96C102.534 124.607 102.634 124.295 102.832 124.023C103.033 123.751 103.306 123.538 103.651 123.383C103.999 123.228 104.393 123.151 104.833 123.151C105.452 123.151 105.938 123.287 106.292 123.558C106.648 123.83 106.9 124.189 107.05 124.634ZM113.045 124.634L112.181 124.879C112.127 124.735 112.047 124.595 111.941 124.459C111.837 124.32 111.696 124.206 111.517 124.117C111.338 124.027 111.108 123.982 110.828 123.982C110.445 123.982 110.126 124.07 109.871 124.247C109.618 124.421 109.492 124.642 109.492 124.911C109.492 125.15 109.579 125.339 109.752 125.478C109.926 125.616 110.198 125.732 110.567 125.824L111.497 126.052C112.056 126.188 112.473 126.396 112.748 126.676C113.022 126.953 113.159 127.31 113.159 127.748C113.159 128.106 113.056 128.427 112.849 128.709C112.646 128.992 112.36 129.215 111.994 129.378C111.627 129.541 111.2 129.622 110.714 129.622C110.076 129.622 109.547 129.484 109.129 129.206C108.711 128.929 108.446 128.525 108.334 127.992L109.247 127.764C109.334 128.101 109.498 128.353 109.74 128.522C109.985 128.69 110.304 128.774 110.698 128.774C111.146 128.774 111.502 128.679 111.765 128.489C112.032 128.296 112.165 128.065 112.165 127.796C112.165 127.579 112.089 127.397 111.937 127.25C111.785 127.101 111.551 126.99 111.236 126.916L110.193 126.672C109.619 126.536 109.198 126.325 108.929 126.04C108.663 125.752 108.53 125.392 108.53 124.96C108.53 124.607 108.629 124.295 108.827 124.023C109.028 123.751 109.301 123.538 109.646 123.383C109.994 123.228 110.388 123.151 110.828 123.151C111.448 123.151 111.934 123.287 112.287 123.558C112.643 123.83 112.896 124.189 113.045 124.634ZM115.308 129.557C115.107 129.557 114.934 129.485 114.79 129.341C114.646 129.197 114.574 129.024 114.574 128.823C114.574 128.622 114.646 128.45 114.79 128.306C114.934 128.162 115.107 128.09 115.308 128.09C115.509 128.09 115.681 128.162 115.825 128.306C115.969 128.45 116.041 128.622 116.041 128.823C116.041 128.957 116.007 129.079 115.939 129.19C115.874 129.302 115.786 129.391 115.675 129.459C115.566 129.524 115.444 129.557 115.308 129.557ZM121.125 129.492V121.146H123.945C124.6 121.146 125.135 121.264 125.55 121.5C125.969 121.734 126.279 122.051 126.48 122.45C126.681 122.849 126.781 123.295 126.781 123.787C126.781 124.278 126.681 124.725 126.48 125.127C126.281 125.529 125.974 125.85 125.559 126.089C125.143 126.325 124.61 126.444 123.961 126.444H121.94V125.547H123.929C124.377 125.547 124.737 125.47 125.008 125.315C125.28 125.16 125.477 124.951 125.599 124.687C125.724 124.421 125.787 124.121 125.787 123.787C125.787 123.452 125.724 123.154 125.599 122.89C125.477 122.627 125.279 122.42 125.004 122.271C124.73 122.119 124.366 122.042 123.912 122.042H122.136V129.492H121.125ZM130.754 129.622C130.189 129.622 129.693 129.488 129.267 129.219C128.843 128.95 128.512 128.573 128.273 128.09C128.036 127.606 127.918 127.041 127.918 126.395C127.918 125.743 128.036 125.173 128.273 124.687C128.512 124.201 128.843 123.823 129.267 123.554C129.693 123.285 130.189 123.151 130.754 123.151C131.319 123.151 131.814 123.285 132.238 123.554C132.664 123.823 132.996 124.201 133.232 124.687C133.471 125.173 133.591 125.743 133.591 126.395C133.591 127.041 133.471 127.606 133.232 128.09C132.996 128.573 132.664 128.95 132.238 129.219C131.814 129.488 131.319 129.622 130.754 129.622ZM130.754 128.758C131.184 128.758 131.537 128.648 131.814 128.428C132.091 128.208 132.296 127.919 132.429 127.56C132.562 127.202 132.629 126.813 132.629 126.395C132.629 125.976 132.562 125.586 132.429 125.225C132.296 124.864 132.091 124.572 131.814 124.349C131.537 124.126 131.184 124.015 130.754 124.015C130.325 124.015 129.972 124.126 129.695 124.349C129.418 124.572 129.213 124.864 129.079 125.225C128.946 125.586 128.88 125.976 128.88 126.395C128.88 126.813 128.946 127.202 129.079 127.56C129.213 127.919 129.418 128.208 129.695 128.428C129.972 128.648 130.325 128.758 130.754 128.758ZM139.492 124.634L138.628 124.879C138.574 124.735 138.494 124.595 138.388 124.459C138.285 124.32 138.143 124.206 137.964 124.117C137.785 124.027 137.555 123.982 137.275 123.982C136.892 123.982 136.573 124.07 136.318 124.247C136.065 124.421 135.939 124.642 135.939 124.911C135.939 125.15 136.026 125.339 136.2 125.478C136.374 125.616 136.645 125.732 137.015 125.824L137.944 126.052C138.503 126.188 138.92 126.396 139.195 126.676C139.469 126.953 139.606 127.31 139.606 127.748C139.606 128.106 139.503 128.427 139.297 128.709C139.093 128.992 138.808 129.215 138.441 129.378C138.074 129.541 137.648 129.622 137.161 129.622C136.523 129.622 135.995 129.484 135.576 129.206C135.158 128.929 134.893 128.525 134.782 127.992L135.694 127.764C135.781 128.101 135.946 128.353 136.187 128.522C136.432 128.69 136.751 128.774 137.145 128.774C137.593 128.774 137.949 128.679 138.213 128.489C138.479 128.296 138.612 128.065 138.612 127.796C138.612 127.579 138.536 127.397 138.384 127.25C138.232 127.101 137.998 126.99 137.683 126.916L136.64 126.672C136.067 126.536 135.645 126.325 135.376 126.04C135.11 125.752 134.977 125.392 134.977 124.96C134.977 124.607 135.076 124.295 135.275 124.023C135.476 123.751 135.749 123.538 136.094 123.383C136.441 123.228 136.835 123.151 137.275 123.151C137.895 123.151 138.381 123.287 138.734 123.558C139.09 123.83 139.343 124.189 139.492 124.634ZM143.776 123.232V124.047H140.532V123.232H143.776ZM141.478 121.733H142.44V127.699C142.44 127.97 142.479 128.174 142.558 128.31C142.639 128.443 142.743 128.533 142.867 128.579C142.995 128.622 143.13 128.644 143.271 128.644C143.377 128.644 143.464 128.639 143.532 128.628C143.6 128.614 143.654 128.603 143.695 128.595L143.89 129.459C143.825 129.484 143.734 129.508 143.617 129.532C143.5 129.56 143.352 129.573 143.173 129.573C142.901 129.573 142.635 129.515 142.374 129.398C142.116 129.281 141.902 129.103 141.731 128.864C141.562 128.625 141.478 128.324 141.478 127.959V121.733ZM145.924 129.557C145.723 129.557 145.55 129.485 145.406 129.341C145.262 129.197 145.19 129.024 145.19 128.823C145.19 128.622 145.262 128.45 145.406 128.306C145.55 128.162 145.723 128.09 145.924 128.09C146.125 128.09 146.297 128.162 146.441 128.306C146.585 128.45 146.657 128.622 146.657 128.823C146.657 128.957 146.623 129.079 146.555 129.19C146.49 129.302 146.402 129.391 146.291 129.459C146.182 129.524 146.06 129.557 145.924 129.557Z" fill="#0B1831"/>
</svg>
