<svg width="167" height="55" viewBox="0 0 167 55" fill="none" xmlns="http://www.w3.org/2000/svg">
<path d="M42.0634 30.288C40.3594 30.288 38.8954 29.928 37.6714 29.208C36.4474 28.488 35.5114 27.396 34.8634 25.932C34.2154 24.444 33.8914 22.572 33.8914 20.316C33.8914 18.036 34.2274 16.164 34.8994 14.7C35.5954 13.236 36.5554 12.144 37.7794 11.424C39.0034 10.704 40.4314 10.344 42.0634 10.344C43.8874 10.344 45.5194 10.752 46.9594 11.568C48.4234 12.384 49.5754 13.536 50.4154 15.024C51.2794 16.512 51.7114 18.276 51.7114 20.316C51.7114 22.332 51.2794 24.084 50.4154 25.572C49.5754 27.06 48.4234 28.224 46.9594 29.064C45.5194 29.88 43.8874 30.288 42.0634 30.288ZM30.6154 30V3.288H36.2314V14.556L35.8714 20.28L35.9794 26.04V30H30.6154ZM41.0914 25.68C42.0274 25.68 42.8554 25.464 43.5754 25.032C44.3194 24.6 44.9074 23.988 45.3394 23.196C45.7954 22.38 46.0234 21.42 46.0234 20.316C46.0234 19.188 45.7954 18.228 45.3394 17.436C44.9074 16.644 44.3194 16.032 43.5754 15.6C42.8554 15.168 42.0274 14.952 41.0914 14.952C40.1554 14.952 39.3154 15.168 38.5714 15.6C37.8274 16.032 37.2394 16.644 36.8074 17.436C36.3754 18.228 36.1594 19.188 36.1594 20.316C36.1594 21.42 36.3754 22.38 36.8074 23.196C37.2394 23.988 37.8274 24.6 38.5714 25.032C39.3154 25.464 40.1554 25.68 41.0914 25.68ZM55.4709 30V3.288H61.0869V30H55.4709ZM75.515 30.288C73.451 30.288 71.615 29.856 70.007 28.992C68.423 28.128 67.163 26.952 66.227 25.464C65.315 23.952 64.859 22.236 64.859 20.316C64.859 18.372 65.315 16.656 66.227 15.168C67.163 13.656 68.423 12.48 70.007 11.64C71.615 10.776 73.451 10.344 75.515 10.344C77.555 10.344 79.379 10.776 80.987 11.64C82.595 12.48 83.855 13.644 84.767 15.132C85.679 16.62 86.135 18.348 86.135 20.316C86.135 22.236 85.679 23.952 84.767 25.464C83.855 26.952 82.595 28.128 80.987 28.992C79.379 29.856 77.555 30.288 75.515 30.288ZM75.515 25.68C76.451 25.68 77.291 25.464 78.035 25.032C78.779 24.6 79.367 23.988 79.799 23.196C80.231 22.38 80.447 21.42 80.447 20.316C80.447 19.188 80.231 18.228 79.799 17.436C79.367 16.644 78.779 16.032 78.035 15.6C77.291 15.168 76.451 14.952 75.515 14.952C74.579 14.952 73.739 15.168 72.995 15.6C72.251 16.032 71.651 16.644 71.195 17.436C70.763 18.228 70.547 19.188 70.547 20.316C70.547 21.42 70.763 22.38 71.195 23.196C71.651 23.988 72.251 24.6 72.995 25.032C73.739 25.464 74.579 25.68 75.515 25.68ZM98.9969 37.272C97.1729 37.272 95.4089 37.044 93.7049 36.588C92.0249 36.156 90.6209 35.496 89.4929 34.608L91.7249 30.576C92.5409 31.248 93.5729 31.776 94.8209 32.16C96.0929 32.568 97.3409 32.772 98.5649 32.772C100.557 32.772 101.997 32.328 102.885 31.44C103.797 30.552 104.253 29.232 104.253 27.48V24.564L104.613 19.704L104.541 14.808V10.632H109.869V26.76C109.869 30.36 108.933 33.012 107.061 34.716C105.189 36.42 102.501 37.272 98.9969 37.272ZM98.1329 29.064C96.3329 29.064 94.7009 28.68 93.2369 27.912C91.7969 27.12 90.6329 26.028 89.7449 24.636C88.8809 23.22 88.4489 21.576 88.4489 19.704C88.4489 17.808 88.8809 16.164 89.7449 14.772C90.6329 13.356 91.7969 12.264 93.2369 11.496C94.7009 10.728 96.3329 10.344 98.1329 10.344C99.7649 10.344 101.205 10.68 102.453 11.352C103.701 12 104.673 13.02 105.369 14.412C106.065 15.78 106.413 17.544 106.413 19.704C106.413 21.84 106.065 23.604 105.369 24.996C104.673 26.364 103.701 27.384 102.453 28.056C101.205 28.728 99.7649 29.064 98.1329 29.064ZM99.2489 24.456C100.233 24.456 101.109 24.264 101.877 23.88C102.645 23.472 103.245 22.908 103.677 22.188C104.109 21.468 104.325 20.64 104.325 19.704C104.325 18.744 104.109 17.916 103.677 17.22C103.245 16.5 102.645 15.948 101.877 15.564C101.109 15.156 100.233 14.952 99.2489 14.952C98.2649 14.952 97.3889 15.156 96.6209 15.564C95.8529 15.948 95.2409 16.5 94.7849 17.22C94.3529 17.916 94.1369 18.744 94.1369 19.704C94.1369 20.64 94.3529 21.468 94.7849 22.188C95.2409 22.908 95.8529 23.472 96.6209 23.88C97.3889 24.264 98.2649 24.456 99.2489 24.456ZM115.096 30V10.632H120.712V30H115.096ZM117.904 7.932C116.872 7.932 116.032 7.632 115.384 7.032C114.736 6.432 114.412 5.688 114.412 4.8C114.412 3.912 114.736 3.168 115.384 2.568C116.032 1.968 116.872 1.668 117.904 1.668C118.936 1.668 119.776 1.956 120.424 2.532C121.072 3.084 121.396 3.804 121.396 4.692C121.396 5.628 121.072 6.408 120.424 7.032C119.8 7.632 118.96 7.932 117.904 7.932ZM133.844 30.288C131.564 30.288 129.788 29.712 128.516 28.56C127.244 27.384 126.608 25.644 126.608 23.34V6.348H132.224V23.268C132.224 24.084 132.44 24.72 132.872 25.176C133.304 25.608 133.892 25.824 134.636 25.824C135.524 25.824 136.28 25.584 136.904 25.104L138.416 29.064C137.84 29.472 137.144 29.784 136.328 30C135.536 30.192 134.708 30.288 133.844 30.288ZM123.62 15.384V11.064H137.048V15.384H123.62Z" fill="#E6E6E6"/>
<path d="M30.7942 49L28.5121 40.6542H29.539L31.2832 47.4515H31.3647L33.1414 40.6542H34.2824L36.0592 47.4515H36.1407L37.8848 40.6542H38.9117L36.6297 49H35.5864L33.7445 42.3495H33.6793L31.8374 49H30.7942ZM39.6483 49V42.7407H40.5774V43.6861H40.6426C40.7567 43.3764 40.9632 43.1251 41.262 42.9322C41.5608 42.7393 41.8977 42.6429 42.2726 42.6429C42.3433 42.6429 42.4316 42.6442 42.5375 42.647C42.6435 42.6497 42.7236 42.6538 42.7779 42.6592V43.6372C42.7453 43.6291 42.6706 43.6168 42.5538 43.6005C42.4397 43.5815 42.3188 43.572 42.1911 43.572C41.8869 43.572 41.6152 43.6358 41.3761 43.7635C41.1398 43.8885 40.9523 44.0624 40.8137 44.2851C40.6779 44.5052 40.61 44.7565 40.61 45.039V49H39.6483ZM43.9179 49V42.7407H44.8797V49H43.9179ZM44.4069 41.6975C44.2195 41.6975 44.0578 41.6336 43.922 41.5059C43.7889 41.3783 43.7223 41.2248 43.7223 41.0455C43.7223 40.8662 43.7889 40.7127 43.922 40.585C44.0578 40.4573 44.2195 40.3934 44.4069 40.3934C44.5944 40.3934 44.7547 40.4573 44.8878 40.585C45.0236 40.7127 45.0916 40.8662 45.0916 41.0455C45.0916 41.2248 45.0236 41.3783 44.8878 41.5059C44.7547 41.6336 44.5944 41.6975 44.4069 41.6975ZM49.3633 42.7407V43.5557H46.1195V42.7407H49.3633ZM47.0649 41.2411H48.0266V47.207C48.0266 47.4786 48.066 47.6824 48.1448 47.8182C48.2263 47.9513 48.3295 48.041 48.4545 48.0872C48.5822 48.1307 48.7167 48.1524 48.8579 48.1524C48.9639 48.1524 49.0508 48.147 49.1187 48.1361C49.1867 48.1225 49.241 48.1116 49.2818 48.1035L49.4774 48.9674C49.4122 48.9918 49.3211 49.0163 49.2043 49.0408C49.0875 49.0679 48.9394 49.0815 48.7601 49.0815C48.4885 49.0815 48.2222 49.0231 47.9614 48.9063C47.7033 48.7895 47.4887 48.6115 47.3176 48.3724C47.1491 48.1334 47.0649 47.8318 47.0649 47.4678V41.2411ZM53.367 49.1304C52.7639 49.1304 52.2437 48.9973 51.8063 48.731C51.3716 48.4621 51.0361 48.0872 50.7997 47.6063C50.5661 47.1227 50.4493 46.5604 50.4493 45.9192C50.4493 45.2781 50.5661 44.713 50.7997 44.224C51.0361 43.7323 51.3648 43.3492 51.7859 43.0748C52.2097 42.7977 52.7041 42.6592 53.2692 42.6592C53.5952 42.6592 53.9171 42.7135 54.235 42.8222C54.5529 42.9309 54.8422 43.1074 55.103 43.3519C55.3638 43.5937 55.5716 43.9143 55.7265 44.3137C55.8813 44.713 55.9588 45.2047 55.9588 45.7888V46.1963H51.1339V45.365H54.9807C54.9807 45.0119 54.9101 44.6967 54.7688 44.4196C54.6303 44.1425 54.432 43.9238 54.1739 43.7635C53.9185 43.6032 53.617 43.5231 53.2692 43.5231C52.8862 43.5231 52.5547 43.6182 52.2749 43.8084C51.9978 43.9958 51.7845 44.2403 51.6351 44.5419C51.4857 44.8434 51.411 45.1667 51.411 45.5117V46.0659C51.411 46.5387 51.4925 46.9394 51.6555 47.2681C51.8212 47.5941 52.0508 47.8427 52.3442 48.0138C52.6376 48.1823 52.9785 48.2665 53.367 48.2665C53.6197 48.2665 53.8479 48.2312 54.0516 48.1605C54.2581 48.0872 54.436 47.9785 54.5855 47.8345C54.7349 47.6878 54.8503 47.5058 54.9318 47.2885L55.861 47.5493C55.7632 47.8644 55.5988 48.1415 55.3679 48.3806C55.137 48.6169 54.8517 48.8017 54.5121 48.9348C54.1725 49.0652 53.7908 49.1304 53.367 49.1304ZM58.1226 49.0652C57.9216 49.0652 57.7491 48.9932 57.6051 48.8492C57.4611 48.7052 57.3891 48.5327 57.3891 48.3317C57.3891 48.1307 57.4611 47.9581 57.6051 47.8142C57.7491 47.6702 57.9216 47.5982 58.1226 47.5982C58.3237 47.5982 58.4962 47.6702 58.6402 47.8142C58.7841 47.9581 58.8561 48.1307 58.8561 48.3317C58.8561 48.4648 58.8222 48.5871 58.7543 48.6984C58.6891 48.8098 58.6008 48.8995 58.4894 48.9674C58.3807 49.0326 58.2585 49.0652 58.1226 49.0652ZM63.9398 49V40.6542H68.9766V41.5508H64.9504V44.3707H68.7158V45.2672H64.9504V48.1035H69.0418V49H63.9398ZM71.385 42.7407L72.8846 45.2998L74.3842 42.7407H75.4926L73.4714 45.8703L75.4926 49H74.3842L72.8846 46.5713L71.385 49H70.2765L72.2652 45.8703L70.2765 42.7407H71.385ZM76.8649 51.3472V42.7407H77.794V43.735H77.9081C77.9788 43.6263 78.0766 43.4878 78.2015 43.3193C78.3292 43.1482 78.5112 42.9961 78.7476 42.8629C78.9867 42.7271 79.31 42.6592 79.7175 42.6592C80.2445 42.6592 80.7091 42.7909 81.1111 43.0545C81.5132 43.318 81.827 43.6915 82.0525 44.1751C82.278 44.6587 82.3907 45.2292 82.3907 45.8866C82.3907 46.5495 82.278 47.1241 82.0525 47.6104C81.827 48.094 81.5146 48.4689 81.1152 48.7351C80.7159 48.9986 80.2554 49.1304 79.7338 49.1304C79.3317 49.1304 79.0098 49.0638 78.768 48.9307C78.5262 48.7949 78.3401 48.6414 78.2097 48.4702C78.0793 48.2964 77.9788 48.1524 77.9081 48.0383H77.8266V51.3472H76.8649ZM77.8103 45.8703C77.8103 46.3431 77.8796 46.7601 78.0182 47.1214C78.1567 47.48 78.3591 47.7612 78.6253 47.9649C78.8916 48.166 79.2176 48.2665 79.6034 48.2665C80.0054 48.2665 80.341 48.1605 80.6099 47.9486C80.8816 47.734 81.0853 47.446 81.2212 47.0847C81.3597 46.7207 81.429 46.3159 81.429 45.8703C81.429 45.4302 81.3611 45.0336 81.2252 44.6804C81.0921 44.3245 80.8897 44.0434 80.6181 43.8369C80.3491 43.6277 80.0109 43.5231 79.6034 43.5231C79.2122 43.5231 78.8834 43.6223 78.6172 43.8206C78.351 44.0162 78.1499 44.2906 78.0141 44.6437C77.8782 44.9942 77.8103 45.4031 77.8103 45.8703ZM83.8577 49V42.7407H84.7869V43.6861H84.8521C84.9662 43.3764 85.1726 43.1251 85.4715 42.9322C85.7703 42.7393 86.1072 42.6429 86.4821 42.6429C86.5527 42.6429 86.641 42.6442 86.747 42.647C86.8529 42.6497 86.9331 42.6538 86.9874 42.6592V43.6372C86.9548 43.6291 86.8801 43.6168 86.7633 43.6005C86.6492 43.5815 86.5283 43.572 86.4006 43.572C86.0963 43.572 85.8246 43.6358 85.5856 43.7635C85.3492 43.8885 85.1618 44.0624 85.0232 44.2851C84.8874 44.5052 84.8195 44.7565 84.8195 45.039V49H83.8577ZM90.5612 49.1304C89.9581 49.1304 89.4379 48.9973 89.0005 48.731C88.5658 48.4621 88.2303 48.0872 87.9939 47.6063C87.7603 47.1227 87.6435 46.5604 87.6435 45.9192C87.6435 45.2781 87.7603 44.713 87.9939 44.224C88.2303 43.7323 88.559 43.3492 88.9801 43.0748C89.4039 42.7977 89.8984 42.6592 90.4634 42.6592C90.7894 42.6592 91.1114 42.7135 91.4292 42.8222C91.7471 42.9309 92.0364 43.1074 92.2972 43.3519C92.558 43.5937 92.7659 43.9143 92.9207 44.3137C93.0756 44.713 93.153 45.2047 93.153 45.7888V46.1963H88.3281V45.365H92.175C92.175 45.0119 92.1043 44.6967 91.9631 44.4196C91.8245 44.1425 91.6262 43.9238 91.3681 43.7635C91.1127 43.6032 90.8112 43.5231 90.4634 43.5231C90.0804 43.5231 89.7489 43.6182 89.4691 43.8084C89.192 43.9958 88.9787 44.2403 88.8293 44.5419C88.6799 44.8434 88.6052 45.1667 88.6052 45.5117V46.0659C88.6052 46.5387 88.6867 46.9394 88.8497 47.2681C89.0154 47.5941 89.245 47.8427 89.5384 48.0138C89.8318 48.1823 90.1727 48.2665 90.5612 48.2665C90.8139 48.2665 91.0421 48.2312 91.2458 48.1605C91.4523 48.0872 91.6303 47.9785 91.7797 47.8345C91.9291 47.6878 92.0446 47.5058 92.1261 47.2885L93.0552 47.5493C92.9574 47.8644 92.793 48.1415 92.5621 48.3806C92.3312 48.6169 92.0459 48.8017 91.7063 48.9348C91.3667 49.0652 90.985 49.1304 90.5612 49.1304ZM99.0496 44.1425L98.1857 44.387C98.1314 44.243 98.0512 44.1031 97.9453 43.9673C97.842 43.8287 97.7008 43.7146 97.5215 43.625C97.3422 43.5353 97.1126 43.4905 96.8328 43.4905C96.4497 43.4905 96.1305 43.5788 95.8751 43.7554C95.6225 43.9292 95.4961 44.1507 95.4961 44.4196C95.4961 44.6587 95.5831 44.8475 95.757 44.9861C95.9308 45.1246 96.2025 45.2401 96.572 45.3324L97.5011 45.5606C98.0607 45.6965 98.4777 45.9043 98.7521 46.1841C99.0265 46.4612 99.1637 46.8185 99.1637 47.2559C99.1637 47.6145 99.0605 47.935 98.854 48.2176C98.6503 48.5001 98.365 48.7229 97.9982 48.8859C97.6315 49.0489 97.205 49.1304 96.7187 49.1304C96.0802 49.1304 95.5518 48.9918 95.1335 48.7147C94.7151 48.4376 94.4502 48.0328 94.3388 47.5004L95.2516 47.2722C95.3386 47.609 95.5029 47.8617 95.7447 48.0301C95.9892 48.1986 96.3084 48.2828 96.7024 48.2828C97.1506 48.2828 97.5065 48.1877 97.77 47.9975C98.0363 47.8046 98.1694 47.5737 98.1694 47.3048C98.1694 47.0874 98.0933 46.9054 97.9412 46.7587C97.7891 46.6093 97.5554 46.4979 97.2403 46.4246L96.1971 46.18C95.6238 46.0442 95.2027 45.8337 94.9338 45.5484C94.6676 45.2604 94.5344 44.9005 94.5344 44.4685C94.5344 44.1153 94.6336 43.8029 94.8319 43.5313C95.0329 43.2596 95.306 43.0463 95.651 42.8915C95.9987 42.7366 96.3927 42.6592 96.8328 42.6592C97.4522 42.6592 97.9385 42.795 98.2917 43.0667C98.6475 43.3384 98.9002 43.697 99.0496 44.1425ZM105.045 44.1425L104.181 44.387C104.127 44.243 104.047 44.1031 103.941 43.9673C103.837 43.8287 103.696 43.7146 103.517 43.625C103.338 43.5353 103.108 43.4905 102.828 43.4905C102.445 43.4905 102.126 43.5788 101.871 43.7554C101.618 43.9292 101.492 44.1507 101.492 44.4196C101.492 44.6587 101.579 44.8475 101.752 44.9861C101.926 45.1246 102.198 45.2401 102.567 45.3324L103.497 45.5606C104.056 45.6965 104.473 45.9043 104.748 46.1841C105.022 46.4612 105.159 46.8185 105.159 47.2559C105.159 47.6145 105.056 47.935 104.849 48.2176C104.646 48.5001 104.36 48.7229 103.994 48.8859C103.627 49.0489 103.2 49.1304 102.714 49.1304C102.076 49.1304 101.547 48.9918 101.129 48.7147C100.711 48.4376 100.446 48.0328 100.334 47.5004L101.247 47.2722C101.334 47.609 101.498 47.8617 101.74 48.0301C101.985 48.1986 102.304 48.2828 102.698 48.2828C103.146 48.2828 103.502 48.1877 103.765 47.9975C104.032 47.8046 104.165 47.5737 104.165 47.3048C104.165 47.0874 104.089 46.9054 103.937 46.7587C103.785 46.6093 103.551 46.4979 103.236 46.4246L102.193 46.18C101.619 46.0442 101.198 45.8337 100.929 45.5484C100.663 45.2604 100.53 44.9005 100.53 44.4685C100.53 44.1153 100.629 43.8029 100.827 43.5313C101.028 43.2596 101.301 43.0463 101.646 42.8915C101.994 42.7366 102.388 42.6592 102.828 42.6592C103.448 42.6592 103.934 42.795 104.287 43.0667C104.643 43.3384 104.896 43.697 105.045 44.1425ZM107.308 49.0652C107.107 49.0652 106.934 48.9932 106.79 48.8492C106.646 48.7052 106.574 48.5327 106.574 48.3317C106.574 48.1307 106.646 47.9581 106.79 47.8142C106.934 47.6702 107.107 47.5982 107.308 47.5982C107.509 47.5982 107.681 47.6702 107.825 47.8142C107.969 47.9581 108.041 48.1307 108.041 48.3317C108.041 48.4648 108.007 48.5871 107.939 48.6984C107.874 48.8098 107.786 48.8995 107.675 48.9674C107.566 49.0326 107.444 49.0652 107.308 49.0652ZM113.125 49V40.6542H115.945C116.6 40.6542 117.135 40.7724 117.55 41.0088C117.969 41.2424 118.279 41.5589 118.48 41.9583C118.681 42.3576 118.781 42.8032 118.781 43.2949C118.781 43.7866 118.681 44.2335 118.48 44.6356C118.281 45.0377 117.974 45.3582 117.559 45.5973C117.143 45.8337 116.61 45.9518 115.961 45.9518H113.94V45.0553H115.929C116.377 45.0553 116.737 44.9779 117.008 44.823C117.28 44.6682 117.477 44.459 117.599 44.1955C117.724 43.9292 117.787 43.6291 117.787 43.2949C117.787 42.9607 117.724 42.6619 117.599 42.3984C117.477 42.1349 117.279 41.9284 117.004 41.779C116.73 41.6268 116.366 41.5508 115.912 41.5508H114.136V49H113.125ZM122.754 49.1304C122.189 49.1304 121.693 48.9959 121.267 48.727C120.843 48.458 120.512 48.0817 120.273 47.5982C120.036 47.1146 119.918 46.5495 119.918 45.9029C119.918 45.2509 120.036 44.6818 120.273 44.1955C120.512 43.7092 120.843 43.3316 121.267 43.0626C121.693 42.7937 122.189 42.6592 122.754 42.6592C123.319 42.6592 123.814 42.7937 124.238 43.0626C124.664 43.3316 124.996 43.7092 125.232 44.1955C125.471 44.6818 125.591 45.2509 125.591 45.9029C125.591 46.5495 125.471 47.1146 125.232 47.5982C124.996 48.0817 124.664 48.458 124.238 48.727C123.814 48.9959 123.319 49.1304 122.754 49.1304ZM122.754 48.2665C123.184 48.2665 123.537 48.1565 123.814 47.9364C124.091 47.7164 124.296 47.427 124.429 47.0684C124.562 46.7098 124.629 46.3213 124.629 45.9029C124.629 45.4846 124.562 45.0947 124.429 44.7334C124.296 44.3721 124.091 44.08 123.814 43.8573C123.537 43.6345 123.184 43.5231 122.754 43.5231C122.325 43.5231 121.972 43.6345 121.695 43.8573C121.418 44.08 121.213 44.3721 121.079 44.7334C120.946 45.0947 120.88 45.4846 120.88 45.9029C120.88 46.3213 120.946 46.7098 121.079 47.0684C121.213 47.427 121.418 47.7164 121.695 47.9364C121.972 48.1565 122.325 48.2665 122.754 48.2665ZM131.492 44.1425L130.628 44.387C130.574 44.243 130.494 44.1031 130.388 43.9673C130.285 43.8287 130.143 43.7146 129.964 43.625C129.785 43.5353 129.555 43.4905 129.275 43.4905C128.892 43.4905 128.573 43.5788 128.318 43.7554C128.065 43.9292 127.939 44.1507 127.939 44.4196C127.939 44.6587 128.026 44.8475 128.2 44.9861C128.374 45.1246 128.645 45.2401 129.015 45.3324L129.944 45.5606C130.503 45.6965 130.92 45.9043 131.195 46.1841C131.469 46.4612 131.606 46.8185 131.606 47.2559C131.606 47.6145 131.503 47.935 131.297 48.2176C131.093 48.5001 130.808 48.7229 130.441 48.8859C130.074 49.0489 129.648 49.1304 129.161 49.1304C128.523 49.1304 127.995 48.9918 127.576 48.7147C127.158 48.4376 126.893 48.0328 126.782 47.5004L127.694 47.2722C127.781 47.609 127.946 47.8617 128.187 48.0301C128.432 48.1986 128.751 48.2828 129.145 48.2828C129.593 48.2828 129.949 48.1877 130.213 47.9975C130.479 47.8046 130.612 47.5737 130.612 47.3048C130.612 47.0874 130.536 46.9054 130.384 46.7587C130.232 46.6093 129.998 46.4979 129.683 46.4246L128.64 46.18C128.067 46.0442 127.645 45.8337 127.376 45.5484C127.11 45.2604 126.977 44.9005 126.977 44.4685C126.977 44.1153 127.076 43.8029 127.275 43.5313C127.476 43.2596 127.749 43.0463 128.094 42.8915C128.441 42.7366 128.835 42.6592 129.275 42.6592C129.895 42.6592 130.381 42.795 130.734 43.0667C131.09 43.3384 131.343 43.697 131.492 44.1425ZM135.776 42.7407V43.5557H132.532V42.7407H135.776ZM133.478 41.2411H134.44V47.207C134.44 47.4786 134.479 47.6824 134.558 47.8182C134.639 47.9513 134.743 48.041 134.867 48.0872C134.995 48.1307 135.13 48.1524 135.271 48.1524C135.377 48.1524 135.464 48.147 135.532 48.1361C135.6 48.1225 135.654 48.1116 135.695 48.1035L135.89 48.9674C135.825 48.9918 135.734 49.0163 135.617 49.0408C135.5 49.0679 135.352 49.0815 135.173 49.0815C134.901 49.0815 134.635 49.0231 134.374 48.9063C134.116 48.7895 133.902 48.6115 133.731 48.3724C133.562 48.1334 133.478 47.8318 133.478 47.4678V41.2411ZM137.924 49.0652C137.723 49.0652 137.55 48.9932 137.406 48.8492C137.262 48.7052 137.19 48.5327 137.19 48.3317C137.19 48.1307 137.262 47.9581 137.406 47.8142C137.55 47.6702 137.723 47.5982 137.924 47.5982C138.125 47.5982 138.297 47.6702 138.441 47.8142C138.585 47.9581 138.657 48.1307 138.657 48.3317C138.657 48.4648 138.623 48.5871 138.555 48.6984C138.49 48.8098 138.402 48.8995 138.291 48.9674C138.182 49.0326 138.06 49.0652 137.924 49.0652Z" fill="#E6E6E6"/>
</svg>
